<svg xmlns="http://www.w3.org/2000/svg" version="1.0" width="201.000000pt" height="250.000000pt" viewBox="0 0 201.000000 250.000000" preserveAspectRatio="xMidYMid meet">

<g transform="translate(0.000000,250.000000) scale(0.100000,-0.100000)" fill="#cb9c18" stroke="none">
<path d="M540 1474 c-142 -24 -276 -28 -325 -10 -18 7 -17 5 3 -13 33 -29 103 -36 212 -22 172 22 202 22 105 2 -49 -11 -121 -20 -160 -21 -59 0 -67 -2 -50 -13 32 -19 132 -12 244 17 57 15 113 25 125 23 17 -4 16 -5 -5 -6 -15 0 -70 -14 -124 -31 -54 -16 -109 -30 -124 -31 -22 -1 -21 -2 10 -11 31 -8 54 -4 159 31 68 23 125 39 127 37 4 -4 -118 -50 -202 -76 -56 -17 -54 -26 5 -21 14 1 65 20 113 43 49 22 90 38 92 36 4 -4 -142 -76 -190 -94 -18 -7 -16 -8 9 -12 43 -6 66 3 125 48 30 22 59 40 64 40 13 0 -83 -71 -121 -90 l-33 -16 33 -11 c45 -13 74 -1 99 42 22 36 37 49 19 16 -31 -59 8 -123 50 -81 19 19 19 23 6 49 -10 19 -13 45 -9 82 5 48 2 58 -18 82 -34 37 -73 39 -239 11z m133 -21 c-7 -2 -21 -2 -30 0 -10 3 -4 5 12 5 17 0 24 -2 18 -5z" fill="#cb9c18"/>
<path d="M1264 1489 c-41 -12 -52 -38 -58 -146 -4 -79 -2 -94 12 -102 41 -23 68 36 42 92 -10 20 -9 21 2 2 7 -10 25 -31 39 -46 24 -26 29 -27 69 -17 l42 11 -28 12 c-31 14 -143 95 -130 95 4 0 36 -20 73 -45 50 -35 74 -45 105 -45 38 0 47 19 10 21 -9 0 -55 20 -102 45 -95 50 -71 49 30 -1 74 -36 116 -46 145 -35 19 8 19 9 -2 9 -39 2 -245 84 -231 93 22 13 59 9 158 -18 102 -29 203 -36 235 -17 17 11 10 12 -45 13 -36 0 -105 10 -155 20 -94 21 -70 20 100 -1 114 -14 179 -7 215 22 20 17 21 19 5 13 -50 -19 -174 -15 -331 10 -89 14 -163 26 -165 25 -2 0 -18 -5 -35 -10z m103 -35 c-3 -3 -12 -4 -19 -1 -8 3 -5 6 6 6 11 1 17 -2 13 -5z" fill="#cb9c18"/>
<path d="M1365 1400 c115 -42 165 -52 200 -41 29 9 29 9 4 10 -14 1 -70 14 -125 31 -132 40 -189 40 -79 0z" fill="#cb9c18"/>
<path d="M962 1345 c-31 -52 -40 -58 -97 -67 -30 -5 100 -68 140 -68 17 0 61 14 96 32 l64 32 -32 7 c-42 8 -56 21 -88 75 -14 24 -31 44 -38 44 -7 0 -27 -25 -45 -55z" fill="#cb9c18"/>
<path d="M898 1361 c-38 -24 -58 -47 -58 -67 0 -3 17 -4 37 -2 31 3 42 11 71 51 29 41 31 47 15 47 -11 0 -40 -13 -65 -29z" fill="#cb9c18"/>
<path d="M1040 1386 c0 -21 57 -87 79 -92 55 -12 58 -14 36 -31 -37 -28 -120 -63 -150 -63 -32 0 -129 41 -157 67 -16 14 -18 14 -24 -1 -4 -9 -5 -18 -3 -19 2 -1 17 -9 34 -17 39 -21 65 -61 93 -147 24 -73 38 -87 75 -78 17 5 29 25 51 86 28 80 75 149 102 149 17 0 19 37 2 42 -7 3 -13 13 -13 23 0 22 -60 71 -97 80 -16 4 -28 4 -28 1z" fill="#cb9c18"/>
<path d="M810 1210 c0 -14 11 -22 41 -30 52 -14 58 -8 26 24 -32 31 -67 35 -67 6z" fill="#cb9c18"/>
<path d="M1139 1204 l-24 -25 40 3 c33 2 41 7 43 26 5 31 -28 29 -59 -4z" fill="#cb9c18"/>
<path d="M812 1169 c2 -8 24 -24 48 -36 24 -13 39 -23 32 -23 -7 0 -26 7 -42 15 -29 15 -29 15 -21 -7 8 -24 74 -68 103 -68 20 0 13 39 -8 47 -8 3 -11 9 -8 14 13 21 -8 47 -42 54 -20 3 -42 9 -51 12 -11 4 -14 2 -11 -8z" fill="#cb9c18"/>
<path d="M1150 1167 c-29 -8 -46 -18 -48 -29 -4 -22 16 -23 63 -4 19 8 35 22 35 30 0 9 -1 16 -2 15 -2 0 -23 -6 -48 -12z" fill="#cb9c18"/>
<path d="M1133 1117 c-36 -9 -63 -36 -63 -63 0 -8 54 8 77 22 22 14 51 55 36 53 -4 -1 -27 -7 -50 -12z" fill="#cb9c18"/>
<path d="M1101 1047 c-19 -7 -36 -18 -39 -25 -3 -9 9 -7 37 7 23 12 41 24 41 26 0 6 3 7 -39 -8z" fill="#cb9c18"/>
<path d="M890 1045 c0 -8 62 -37 68 -31 3 4 1 10 -4 15 -11 10 -64 24 -64 16z" fill="#cb9c18"/>
</g>
</svg>